<svg version="1" xmlns="http://www.w3.org/2000/svg" width="666.667" height="666.667" viewBox="0 0 500.000000 500.000000"><path d="M330 17.7c-1.4.2-7.4 1.5-13.4 3-12.8 3.1-17 6-13.1 9.3 1 .9 2.7.9 6.7.1 12.5-2.5 25.6-3 34.8-1.1 17.6 3.4 27.4 15.7 28.4 35.7.4 7.6-.3 8.8-5.8 9-4.8.1-16.5 3.3-20.7 5.6-14 7.6-21 13.4-27.2 22.8-4.6 7-10.1 18.1-13.7 28-3.1 8.3-9.5 33.2-10.5 40.9-.3 2.5-.8 5.2-1 6-.4 1.7-1.4 9.5-2.1 16-3.9 40.8-14.7 78.1-33.2 114.5-33.4 65.4-86.4 110-156.7 131.5-7.6 2.3-29.6 7.6-35.5 8.5-2.5.4-5.3.9-6.4 1.1-1 .2-4.4.6-7.5 1-3.1.3-5.7.8-5.9.9-.8.7 12.1 4.9 20.3 6.6 20.8 4.3 42.7 4.1 66.3-.6 32.2-6.6 63.1-20.2 95.7-42.3 10.1-6.8 26.7-19.4 34-25.7 21.9-19 39.8-37.1 55.2-56 2.2-2.8 9.2-12.2 15.5-21 9.7-13.8 15.6-22.6 27.3-41.5 1.2-1.9 3.4-5.4 4.8-7.7 1.5-2.4 2.7-4.5 2.7-4.7 0-.3 1.4-2.9 3.1-5.8 4.2-7 16.8-32.3 20.8-41.8 1.8-4.1 3.6-8.4 4.1-9.5 3.4-7.4 10.9-32.2 12.5-41 .2-1.7.7-4.1 1-5.5 3.2-15.5 2.3-37.1-2-50.7-3.9-12.6-9.3-19.5-19-25-4.5-2.5-5-3.2-5.1-6.3-.4-13.9-2.8-24.3-8.4-35.7-5-10.3-12.1-15.7-23.8-18.2-4.1-.9-17.1-1.1-22.2-.4z"/></svg>